<?xml version="1.0" encoding="utf-8"?><svg version="1.1" id="Layer_1" xmlns="http://www.w3.org/2000/svg" xmlns:xlink="http://www.w3.org/1999/xlink" x="0px" y="0px" viewBox="0 0 122.88 101.9" style="enable-background:new 0 0 122.88 101.9" xml:space="preserve"><style type="text/css"><![CDATA[
	.st0{fill-rule:evenodd;clip-rule:evenodd;}
]]></style><g><path class="st0" d="M3.34,0h116.2c1.84,0,3.34,1.5,3.34,3.34v76.98c0,1.84-1.5,3.34-3.34,3.34H3.34C1.5,83.66,0,82.16,0,80.32 V3.34C0,1.5,1.5,0,3.34,0L3.34,0L3.34,0z M21.1,13.98c0.67,0,1.22,0.55,1.22,1.23c0,0.67-0.55,1.22-1.22,1.22 c-0.68,0-1.23-0.55-1.23-1.22C19.87,14.53,20.42,13.98,21.1,13.98L21.1,13.98z M43.47,28.94c0.67,0,1.22,0.55,1.22,1.22 c0,0.67-0.55,1.22-1.22,1.22s-1.23-0.55-1.23-1.22C42.24,29.49,42.79,28.94,43.47,28.94L43.47,28.94z M38.21,28.94 c0.67,0,1.22,0.55,1.22,1.22c0,0.67-0.55,1.22-1.22,1.22c-0.68,0-1.23-0.55-1.23-1.22C36.99,29.49,37.54,28.94,38.21,28.94 L38.21,28.94z M32.96,28.94c0.67,0,1.22,0.55,1.22,1.22c0,0.67-0.55,1.22-1.22,1.22s-1.22-0.55-1.22-1.22 C31.73,29.49,32.28,28.94,32.96,28.94L32.96,28.94z M31.61,13.98c0.68,0,1.23,0.55,1.23,1.23c0,0.67-0.55,1.22-1.23,1.22 c-0.67,0-1.22-0.55-1.22-1.22C30.38,14.53,30.93,13.98,31.61,13.98L31.61,13.98z M26.35,13.98c0.67,0,1.22,0.55,1.22,1.23 c0,0.67-0.55,1.22-1.22,1.22s-1.22-0.55-1.22-1.22C25.13,14.53,25.68,13.98,26.35,13.98L26.35,13.98z M94.19,18.51H18.57v31.12 c0,0.13,0.05,0.24,0.14,0.33c0.09,0.08,0.2,0.14,0.33,0.14h3.3v2.4l-3.3,0c-0.79,0-1.5-0.32-2.02-0.84 c-0.52-0.52-0.84-1.23-0.84-2.02V14.28c0-0.79,0.32-1.5,0.84-2.02c0.52-0.52,1.23-0.84,2.02-0.84h74.69c0.79,0,1.5,0.32,2.02,0.84 c0.52,0.52,0.84,1.23,0.84,2.02h-0.01v6.84h-2.39V18.51L94.19,18.51L94.19,18.51z M30.51,66.1c-0.78,0-1.48-0.32-1.99-0.83 c-0.51-0.51-0.83-1.22-0.83-2V28.01c0-0.78,0.32-1.48,0.83-1.99c0.51-0.51,1.22-0.83,1.99-0.83h75.3c0.78,0,1.48,0.32,1.99,0.83 c0.51,0.51,0.83,1.22,0.83,1.99v35.27c0,0.78-0.32,1.48-0.83,1.99c-0.51,0.51-1.22,0.83-1.99,0.83H30.51L30.51,66.1L30.51,66.1z M106.24,34.22H30.09v29.06c0,0.12,0.05,0.22,0.12,0.3c0.08,0.08,0.18,0.12,0.3,0.12h75.3c0.11,0,0.22-0.05,0.29-0.12 c0.08-0.08,0.13-0.18,0.13-0.3V34.22L106.24,34.22L106.24,34.22z M46.29,88.27h30.3c0.08,5.24,2.24,9.94,8.09,13.63H38.2 C42.88,98.51,46.31,94.39,46.29,88.27L46.29,88.27L46.29,88.27L46.29,88.27L46.29,88.27z M7.33,4.77h108.23 c1.63,0,2.95,1.33,2.95,2.95v60.24c0,1.62-1.33,2.95-2.95,2.95H7.33c-1.62,0-2.95-1.33-2.95-2.95V7.72 C4.37,6.09,5.71,4.77,7.33,4.77L7.33,4.77L7.33,4.77z"/></g></svg>